<svg width="16" height="16" viewBox="0 0 16 16" fill="none" xmlns="http://www.w3.org/2000/svg">
<path d="M1.25 9.25V9.75H1.75H3C3.19891 9.75 3.38968 9.82902 3.53033 9.96967C3.67098 10.1103 3.75 10.3011 3.75 10.5V14.25C3.75 14.4489 3.67098 14.6397 3.53033 14.7803L3.88388 15.1339L3.53033 14.7803C3.38968 14.921 3.19891 15 3 15H1.75C1.55109 15 1.36032 14.921 1.21967 14.7803L0.866116 15.1339L1.21967 14.7803C1.07902 14.6397 1 14.4489 1 14.25V8C1 7.08075 1.18106 6.1705 1.53284 5.32122C1.88463 4.47194 2.40024 3.70026 3.05025 3.05025C3.70026 2.40024 4.47194 1.88463 5.32122 1.53284C6.1705 1.18106 7.08075 1 8 1C8.91925 1 9.8295 1.18106 10.6788 1.53284C11.5281 1.88463 12.2997 2.40024 12.9497 3.05025C13.5998 3.70026 14.1154 4.47194 14.4672 5.32122C14.8189 6.1705 15 7.08075 15 8V14.25C15 14.4489 14.921 14.6397 14.7803 14.7803C14.6397 14.921 14.4489 15 14.25 15H13C12.8011 15 12.6103 14.921 12.4697 14.7803C12.329 14.6397 12.25 14.4489 12.25 14.25V10.5C12.25 10.3011 12.329 10.1103 12.4697 9.96967C12.6103 9.82902 12.8011 9.75 13 9.75H14.25H14.75V9.25V8C14.75 6.20979 14.0388 4.4929 12.773 3.22703C11.5071 1.96116 9.79021 1.25 8 1.25C6.20979 1.25 4.4929 1.96116 3.22703 3.22703C1.96116 4.4929 1.25 6.20979 1.25 8V9.25Z" stroke="#484848"/>
</svg>
